<svg width="187" height="179" viewBox="0 0 187 179" fill="none" xmlns="http://www.w3.org/2000/svg">
<path fill-rule="evenodd" clip-rule="evenodd" d="M93.4104 0C41.1534 0 0 32.7286 0 32.7286C0 32.7286 19.0626 144.037 93.4104 178.94C167.719 144.037 186.821 32.7286 186.821 32.7286C186.821 32.7286 145.667 0 93.4104 0Z" fill="#D1B7FF" fill-opacity="0.74"/>
<path d="M136.508 89.0305C142.072 65.2506 127.306 41.4623 103.526 35.8979C79.7457 30.3335 55.9574 45.1001 50.393 68.88C44.8286 92.66 59.5952 116.448 83.3752 122.013C107.155 127.577 130.943 112.81 136.508 89.0305Z" fill="#B69DE5"/>
<path d="M86.5389 101.445L69.2623 84.1295L77.4929 75.9377L86.5389 84.9837L112.279 59.2822L120.51 67.5129L86.5389 101.445Z" fill="white"/>
</svg>
